<svg width="1855" height="995" xmlns="http://www.w3.org/2000/svg"><g><path d="M-15,-67L-42,78L41,43Z" fill="#fffbfd" stroke="#fffbfd"/><path d="M-15,-67L41,43L69,-56Z" fill="#fefafd" stroke="#fefafd"/><path d="M-15,-67L69,-56L169,-94Z" fill="#fcf9fc" stroke="#fcf9fc"/><path d="M69,-56L41,43L198,4Z" fill="#fbf8fb" stroke="#fbf8fb"/><path d="M69,-56L198,4L169,-94Z" fill="#f9f6fa" stroke="#f9f6fa"/><path d="M169,-94L198,4L220,-78Z" fill="#f7f4f9" stroke="#f7f4f9"/><path d="M169,-94L220,-78L315,-62Z" fill="#f6f3f9" stroke="#f6f3f9"/><path d="M169,-94L315,-62L541,-51Z" fill="#efeef6" stroke="#efeef6"/><path d="M169,-94L541,-51L883,-84Z" fill="#e2e5f1" stroke="#e2e5f1"/><path d="M169,-94L883,-84L1784,-87Z" fill="#b7d3e7" stroke="#b7d3e7"/><path d="M220,-78L198,4L315,-62Z" fill="#f5f3f8" stroke="#f5f3f8"/><path d="M315,-62L198,4L256,50Z" fill="#f4f2f8" stroke="#f4f2f8"/><path d="M315,-62L256,50L384,16Z" fill="#f1eff7" stroke="#f1eff7"/><path d="M315,-62L384,16L444,-40Z" fill="#edecf5" stroke="#edecf5"/><path d="M315,-62L444,-40L541,-51Z" fill="#eaeaf4" stroke="#eaeaf4"/><path d="M444,-40L384,16L487,2Z" fill="#e9e9f3" stroke="#e9e9f3"/><path d="M444,-40L487,2L541,-51Z" fill="#e5e7f2" stroke="#e5e7f2"/><path d="M541,-51L487,2L608,-4Z" fill="#e0e5f1" stroke="#e0e5f1"/><path d="M541,-51L608,-4L713,-5Z" fill="#dae1ef" stroke="#dae1ef"/><path d="M541,-51L713,-5L883,-84Z" fill="#d1deed" stroke="#d1deed"/><path d="M608,-4L487,2L551,79Z" fill="#e0e5f1" stroke="#e0e5f1"/><path d="M608,-4L551,79L646,56Z" fill="#dbe2ef" stroke="#dbe2ef"/><path d="M608,-4L646,56L704,1Z" fill="#d7e0ee" stroke="#d7e0ee"/><path d="M608,-4L704,1L713,-5Z" fill="#d5dfee" stroke="#d5dfee"/><path d="M713,-5L704,1L711,147Z" fill="#d1deed" stroke="#d1deed"/><path d="M713,-5L711,147L851,50Z" fill="#ccdcec" stroke="#ccdcec"/><path d="M713,-5L851,50L883,-84Z" fill="#c6d9ea" stroke="#c6d9ea"/><path d="M883,-84L851,50L907,41Z" fill="#bfd6e8" stroke="#bfd6e8"/><path d="M883,-84L907,41L939,-33Z" fill="#bcd5e8" stroke="#bcd5e8"/><path d="M883,-84L939,-33L1010,-49Z" fill="#b8d3e7" stroke="#b8d3e7"/><path d="M883,-84L1010,-49L1108,-69Z" fill="#b0d0e5" stroke="#b0d0e5"/><path d="M883,-84L1108,-69L1784,-87Z" fill="#90c1dc" stroke="#90c1dc"/><path d="M939,-33L907,41L1008,52Z" fill="#b7d3e6" stroke="#b7d3e6"/><path d="M939,-33L1008,52L1010,-49Z" fill="#b2d1e5" stroke="#b2d1e5"/><path d="M1010,-49L1008,52L1144,31Z" fill="#a9cde3" stroke="#a9cde3"/><path d="M1010,-49L1144,31L1108,-69Z" fill="#a4cce2" stroke="#a4cce2"/><path d="M1108,-69L1144,31L1223,-6Z" fill="#9bc8e0" stroke="#9bc8e0"/><path d="M1108,-69L1223,-6L1379,-57Z" fill="#93c2dd" stroke="#93c2dd"/><path d="M1108,-69L1379,-57L1784,-87Z" fill="#82b5d4" stroke="#82b5d4"/><path d="M1223,-6L1144,31L1218,101Z" fill="#97c5df" stroke="#97c5df"/><path d="M1223,-6L1218,101L1281,95Z" fill="#92c2dd" stroke="#92c2dd"/><path d="M1223,-6L1281,95L1305,34Z" fill="#8fc0dc" stroke="#8fc0dc"/><path d="M1223,-6L1305,34L1379,-57Z" fill="#8cbedb" stroke="#8cbedb"/><path d="M1379,-57L1305,34L1414,22Z" fill="#85b9d9" stroke="#85b9d9"/><path d="M1379,-57L1414,22L1427,0Z" fill="#82b7d6" stroke="#82b7d6"/><path d="M1379,-57L1427,0L1566,-2Z" fill="#82b3d0" stroke="#82b3d0"/><path d="M1379,-57L1566,-2L1681,-49Z" fill="#82adc7" stroke="#82adc7"/><path d="M1379,-57L1681,-49L1784,-87Z" fill="#81a7be" stroke="#81a7be"/><path d="M1427,0L1414,22L1538,48Z" fill="#82b3d0" stroke="#82b3d0"/><path d="M1427,0L1538,48L1566,-2Z" fill="#82afca" stroke="#82afca"/><path d="M1566,-2L1538,48L1628,10Z" fill="#81aac2" stroke="#81aac2"/><path d="M1566,-2L1628,10L1681,-49Z" fill="#81a7bd" stroke="#81a7bd"/><path d="M1681,-49L1628,10L1703,42Z" fill="#81a3b8" stroke="#81a3b8"/><path d="M1681,-49L1703,42L1784,-87Z" fill="#819fb2" stroke="#819fb2"/><path d="M1784,-87L1703,42L1817,41Z" fill="#819cad" stroke="#819cad"/><path d="M1784,-87L1817,41L1848,-16Z" fill="#8099a7" stroke="#8099a7"/><path d="M1784,-87L1848,-16L1937,-37Z" fill="#8096a3" stroke="#8096a3"/><path d="M1848,-16L1817,41L1991,50Z" fill="#80949f" stroke="#80949f"/><path d="M1848,-16L1991,50L1937,-37Z" fill="#80919b" stroke="#80919b"/><path d="M-42,78L-56,249L-27,122Z" fill="#fffcfe" stroke="#fffcfe"/><path d="M-42,78L-27,122L41,43Z" fill="#fffcfd" stroke="#fffcfd"/><path d="M41,43L-27,122L88,142Z" fill="#fefafd" stroke="#fefafd"/><path d="M41,43L88,142L135,139Z" fill="#fcf8fc" stroke="#fcf8fc"/><path d="M41,43L135,139L198,4Z" fill="#faf7fb" stroke="#faf7fb"/><path d="M198,4L135,139L256,50Z" fill="#f7f4f9" stroke="#f7f4f9"/><path d="M256,50L135,139L283,165Z" fill="#f6f3f9" stroke="#f6f3f9"/><path d="M256,50L283,165L368,142Z" fill="#f1f0f7" stroke="#f1f0f7"/><path d="M256,50L368,142L384,16Z" fill="#efeef6" stroke="#efeef6"/><path d="M384,16L368,142L487,139Z" fill="#ebebf4" stroke="#ebebf4"/><path d="M384,16L487,139L487,2Z" fill="#e8e9f3" stroke="#e8e9f3"/><path d="M487,2L487,139L551,79Z" fill="#e4e6f2" stroke="#e4e6f2"/><path d="M551,79L487,139L589,115Z" fill="#e1e5f1" stroke="#e1e5f1"/><path d="M551,79L589,115L646,56Z" fill="#dce3f0" stroke="#dce3f0"/><path d="M646,56L589,115L628,134Z" fill="#dae1ef" stroke="#dae1ef"/><path d="M646,56L628,134L711,147Z" fill="#d6e0ee" stroke="#d6e0ee"/><path d="M646,56L711,147L704,1Z" fill="#d4dfed" stroke="#d4dfed"/><path d="M851,50L711,147L864,182Z" fill="#c7d9ea" stroke="#c7d9ea"/><path d="M851,50L864,182L921,122Z" fill="#bfd6e9" stroke="#bfd6e9"/><path d="M851,50L921,122L907,41Z" fill="#bdd6e8" stroke="#bdd6e8"/><path d="M907,41L921,122L1008,52Z" fill="#b7d3e7" stroke="#b7d3e7"/><path d="M1008,52L921,122L1082,151Z" fill="#b0d0e5" stroke="#b0d0e5"/><path d="M1008,52L1082,151L1144,31Z" fill="#a6cce2" stroke="#a6cce2"/><path d="M1144,31L1082,151L1153,125Z" fill="#9fcae1" stroke="#9fcae1"/><path d="M1144,31L1153,125L1218,101Z" fill="#99c7df" stroke="#99c7df"/><path d="M1281,95L1218,101L1333,172Z" fill="#8ec0dc" stroke="#8ec0dc"/><path d="M1281,95L1333,172L1305,34Z" fill="#8bbedb" stroke="#8bbedb"/><path d="M1305,34L1333,172L1414,22Z" fill="#87bbd9" stroke="#87bbd9"/><path d="M1414,22L1333,172L1445,151Z" fill="#82b7d7" stroke="#82b7d7"/><path d="M1414,22L1445,151L1521,122Z" fill="#82b3d0" stroke="#82b3d0"/><path d="M1414,22L1521,122L1538,48Z" fill="#82b0cc" stroke="#82b0cc"/><path d="M1538,48L1521,122L1602,152Z" fill="#82acc5" stroke="#82acc5"/><path d="M1538,48L1602,152L1628,10Z" fill="#81a9c1" stroke="#81a9c1"/><path d="M1628,10L1602,152L1703,42Z" fill="#81a5bb" stroke="#81a5bb"/><path d="M1703,42L1602,152L1736,167Z" fill="#81a3b7" stroke="#81a3b7"/><path d="M1703,42L1736,167L1817,41Z" fill="#819daf" stroke="#819daf"/><path d="M1817,41L1736,167L1837,188Z" fill="#819aa9" stroke="#819aa9"/><path d="M1817,41L1837,188L1944,199Z" fill="#8094a1" stroke="#8094a1"/><path d="M1817,41L1944,199L1991,50Z" fill="#80919c" stroke="#80919c"/><path d="M1991,50L1944,199L1986,292Z" fill="#7e8c95" stroke="#7e8c95"/><path d="M1991,50L1986,292L1997,836Z" fill="#5f7b93" stroke="#5f7b93"/><path d="M-27,122L-56,249L88,142Z" fill="#fefafd" stroke="#fefafd"/><path d="M88,142L-56,249L63,280Z" fill="#fbf8fd" stroke="#fbf8fd"/><path d="M88,142L63,280L158,230Z" fill="#f9f6fb" stroke="#f9f6fb"/><path d="M88,142L158,230L135,139Z" fill="#f9f6fb" stroke="#f9f6fb"/><path d="M135,139L158,230L283,165Z" fill="#f6f3fa" stroke="#f6f3fa"/><path d="M283,165L158,230L214,255Z" fill="#f4f2f9" stroke="#f4f2f9"/><path d="M283,165L214,255L349,203Z" fill="#f0eff7" stroke="#f0eff7"/><path d="M283,165L349,203L368,142Z" fill="#eeedf6" stroke="#eeedf6"/><path d="M368,142L349,203L428,214Z" fill="#ebebf5" stroke="#ebebf5"/><path d="M368,142L428,214L487,139Z" fill="#e9e9f4" stroke="#e9e9f4"/><path d="M487,139L428,214L569,241Z" fill="#e3e5f2" stroke="#e3e5f2"/><path d="M487,139L569,241L589,115Z" fill="#dfe4f1" stroke="#dfe4f1"/><path d="M589,115L569,241L628,134Z" fill="#dbe2f0" stroke="#dbe2f0"/><path d="M628,134L569,241L667,230Z" fill="#d7dfef" stroke="#d7dfef"/><path d="M628,134L667,230L711,147Z" fill="#d4deee" stroke="#d4deee"/><path d="M711,147L667,230L755,287Z" fill="#cfdbed" stroke="#cfdbed"/><path d="M711,147L755,287L843,233Z" fill="#c8d9eb" stroke="#c8d9eb"/><path d="M711,147L843,233L864,182Z" fill="#c5d8ea" stroke="#c5d8ea"/><path d="M864,182L843,233L947,300Z" fill="#bbd4e8" stroke="#bbd4e8"/><path d="M864,182L947,300L953,297Z" fill="#b5d1e7" stroke="#b5d1e7"/><path d="M864,182L953,297L1026,244Z" fill="#b4d0e7" stroke="#b4d0e7"/><path d="M864,182L1026,244L921,122Z" fill="#b7d2e7" stroke="#b7d2e7"/><path d="M921,122L1026,244L1082,151Z" fill="#adcfe5" stroke="#adcfe5"/><path d="M1082,151L1026,244L1135,288Z" fill="#a2c9e2" stroke="#a2c9e2"/><path d="M1082,151L1135,288L1153,125Z" fill="#9ec8e1" stroke="#9ec8e1"/><path d="M1153,125L1135,288L1226,292Z" fill="#96c4df" stroke="#96c4df"/><path d="M1153,125L1226,292L1218,101Z" fill="#95c4de" stroke="#95c4de"/><path d="M1218,101L1226,292L1333,172Z" fill="#8ebfdc" stroke="#8ebfdc"/><path d="M1333,172L1226,292L1315,289Z" fill="#89bcdb" stroke="#89bcdb"/><path d="M1333,172L1315,289L1479,236Z" fill="#81b6d8" stroke="#81b6d8"/><path d="M1333,172L1479,236L1445,151Z" fill="#81b4d5" stroke="#81b4d5"/><path d="M1445,151L1479,236L1521,122Z" fill="#80b0cd" stroke="#80b0cd"/><path d="M1521,122L1479,236L1508,256Z" fill="#7faecb" stroke="#7faecb"/><path d="M1521,122L1508,256L1602,152Z" fill="#80abc6" stroke="#80abc6"/><path d="M1602,152L1508,256L1602,307Z" fill="#7ea8c3" stroke="#7ea8c3"/><path d="M1602,152L1602,307L1683,296Z" fill="#7da3bd" stroke="#7da3bd"/><path d="M1602,152L1683,296L1736,167Z" fill="#7fa1b7" stroke="#7fa1b7"/><path d="M1736,167L1683,296L1797,233Z" fill="#7e9cb0" stroke="#7e9cb0"/><path d="M1736,167L1797,233L1837,188Z" fill="#7f99aa" stroke="#7f99aa"/><path d="M1837,188L1797,233L1831,212Z" fill="#7e96a7" stroke="#7e96a7"/><path d="M1837,188L1831,212L1944,199Z" fill="#7e93a1" stroke="#7e93a1"/><path d="M1944,199L1831,212L1833,320Z" fill="#7d92a1" stroke="#7d92a1"/><path d="M1944,199L1833,320L1986,292Z" fill="#788c9b" stroke="#788c9b"/><path d="M-56,249L-85,686L-53,342Z" fill="#d6e9fd" stroke="#d6e9fd"/><path d="M-56,249L-53,342L63,280Z" fill="#f3f5fe" stroke="#f3f5fe"/><path d="M63,280L-53,342L62,380Z" fill="#eaeffd" stroke="#eaeffd"/><path d="M63,280L62,380L115,368Z" fill="#e5ecfc" stroke="#e5ecfc"/><path d="M63,280L115,368L158,230Z" fill="#eef0fb" stroke="#eef0fb"/><path d="M158,230L115,368L214,255Z" fill="#eeeffa" stroke="#eeeffa"/><path d="M214,255L115,368L262,353Z" fill="#e4eaf9" stroke="#e4eaf9"/><path d="M214,255L262,353L349,203Z" fill="#ebecf8" stroke="#ebecf8"/><path d="M349,203L262,353L392,399Z" fill="#dee5f6" stroke="#dee5f6"/><path d="M349,203L392,399L428,214Z" fill="#e4e7f5" stroke="#e4e7f5"/><path d="M428,214L392,399L438,397Z" fill="#d5dff4" stroke="#d5dff4"/><path d="M428,214L438,397L513,382Z" fill="#d4ddf3" stroke="#d4ddf3"/><path d="M428,214L513,382L569,241Z" fill="#dbe1f2" stroke="#dbe1f2"/><path d="M569,241L513,382L667,377Z" fill="#c8d8f0" stroke="#c8d8f0"/><path d="M569,241L667,377L667,230Z" fill="#cedaef" stroke="#cedaef"/><path d="M667,230L667,377L755,287Z" fill="#c5d6ed" stroke="#c5d6ed"/><path d="M755,287L667,377L771,310Z" fill="#bcd2ec" stroke="#bcd2ec"/><path d="M755,287L771,310L843,233Z" fill="#c0d5eb" stroke="#c0d5eb"/><path d="M843,233L771,310L882,375Z" fill="#b5d0ea" stroke="#b5d0ea"/><path d="M843,233L882,375L947,300Z" fill="#afcee8" stroke="#afcee8"/><path d="M953,297L947,300L1034,368Z" fill="#a1c8e6" stroke="#a1c8e6"/><path d="M953,297L1034,368L1026,244Z" fill="#a1c8e5" stroke="#a1c8e5"/><path d="M1026,244L1034,368L1126,329Z" fill="#97c3e3" stroke="#97c3e3"/><path d="M1026,244L1126,329L1135,288Z" fill="#98c5e2" stroke="#98c5e2"/><path d="M1135,288L1126,329L1209,330Z" fill="#8abee0" stroke="#8abee0"/><path d="M1135,288L1209,330L1226,292Z" fill="#89bddf" stroke="#89bddf"/><path d="M1226,292L1209,330L1315,289Z" fill="#83b9dd" stroke="#83b9dd"/><path d="M1315,289L1209,330L1258,411Z" fill="#7ab5dc" stroke="#7ab5dc"/><path d="M1315,289L1258,411L1362,338Z" fill="#74b1da" stroke="#74b1da"/><path d="M1315,289L1362,338L1479,236Z" fill="#77b1d8" stroke="#77b1d8"/><path d="M1479,236L1362,338L1404,361Z" fill="#72add5" stroke="#72add5"/><path d="M1479,236L1404,361L1508,256Z" fill="#77accf" stroke="#77accf"/><path d="M1508,256L1404,361L1530,351Z" fill="#6fa7ce" stroke="#6fa7ce"/><path d="M1508,256L1530,351L1602,307Z" fill="#73a4c6" stroke="#73a4c6"/><path d="M1683,296L1602,307L1720,400Z" fill="#6d98b8" stroke="#6d98b8"/><path d="M1683,296L1720,400L1833,320Z" fill="#6b92af" stroke="#6b92af"/><path d="M1683,296L1833,320L1797,233Z" fill="#7695ac" stroke="#7695ac"/><path d="M1797,233L1833,320L1831,212Z" fill="#7b95a7" stroke="#7b95a7"/><path d="M1986,292L1833,320L1907,383Z" fill="#6c879d" stroke="#6c879d"/><path d="M1986,292L1907,383L1956,400Z" fill="#668198" stroke="#668198"/><path d="M1986,292L1956,400L1997,836Z" fill="#427090" stroke="#427090"/><path d="M-53,342L-85,686L-36,434Z" fill="#c7e3fb" stroke="#c7e3fb"/><path d="M-53,342L-36,434L62,380Z" fill="#e0ecfd" stroke="#e0ecfd"/><path d="M62,380L-36,434L87,435Z" fill="#d7e7fb" stroke="#d7e7fb"/><path d="M62,380L87,435L115,368Z" fill="#dae7fb" stroke="#dae7fb"/><path d="M115,368L87,435L131,468Z" fill="#d2e3fa" stroke="#d2e3fa"/><path d="M115,368L131,468L262,353Z" fill="#d6e4f9" stroke="#d6e4f9"/><path d="M262,353L131,468L300,491Z" fill="#cadef7" stroke="#cadef7"/><path d="M262,353L300,491L347,437Z" fill="#c8dcf5" stroke="#c8dcf5"/><path d="M262,353L347,437L392,399Z" fill="#ceddf6" stroke="#ceddf6"/><path d="M392,399L347,437L412,492Z" fill="#bfd7f3" stroke="#bfd7f3"/><path d="M392,399L412,492L438,397Z" fill="#c1d6f2" stroke="#c1d6f2"/><path d="M438,397L412,492L519,497Z" fill="#b6d1f0" stroke="#b6d1f0"/><path d="M438,397L519,497L513,382Z" fill="#bcd3f1" stroke="#bcd3f1"/><path d="M513,382L519,497L648,490Z" fill="#afcdee" stroke="#afcdee"/><path d="M513,382L648,490L667,377Z" fill="#b4cfee" stroke="#b4cfee"/><path d="M667,377L648,490L704,472Z" fill="#a7c9eb" stroke="#a7c9eb"/><path d="M667,377L704,472L771,310Z" fill="#b1cdec" stroke="#b1cdec"/><path d="M771,310L704,472L848,445Z" fill="#a5c8ea" stroke="#a5c8ea"/><path d="M771,310L848,445L882,375Z" fill="#a6c9ea" stroke="#a6c9ea"/><path d="M882,375L848,445L973,423Z" fill="#96c2e6" stroke="#96c2e6"/><path d="M882,375L973,423L947,300Z" fill="#9ec5e7" stroke="#9ec5e7"/><path d="M947,300L973,423L1034,368Z" fill="#98c3e5" stroke="#98c3e5"/><path d="M1034,368L973,423L1098,431Z" fill="#86bce3" stroke="#86bce3"/><path d="M1034,368L1098,431L1126,329Z" fill="#88bce2" stroke="#88bce2"/><path d="M1126,329L1098,431L1146,466Z" fill="#7bb7e0" stroke="#7bb7e0"/><path d="M1126,329L1146,466L1209,330Z" fill="#7eb9e0" stroke="#7eb9e0"/><path d="M1209,330L1146,466L1258,411Z" fill="#72b3dd" stroke="#72b3dd"/><path d="M1362,338L1258,411L1343,412Z" fill="#6aacda" stroke="#6aacda"/><path d="M1362,338L1343,412L1404,361Z" fill="#69abd8" stroke="#69abd8"/><path d="M1404,361L1343,412L1465,486Z" fill="#5ba3d5" stroke="#5ba3d5"/><path d="M1404,361L1465,486L1527,445Z" fill="#579ecd" stroke="#579ecd"/><path d="M1404,361L1527,445L1530,351Z" fill="#62a1cc" stroke="#62a1cc"/><path d="M1530,351L1527,445L1666,470Z" fill="#5997c1" stroke="#5997c1"/><path d="M1530,351L1666,470L1602,307Z" fill="#6499c0" stroke="#6499c0"/><path d="M1602,307L1666,470L1720,400Z" fill="#6093b8" stroke="#6093b8"/><path d="M1720,400L1666,470L1704,489Z" fill="#518bb2" stroke="#518bb2"/><path d="M1720,400L1704,489L1807,499Z" fill="#4f86ac" stroke="#4f86ac"/><path d="M1720,400L1807,499L1833,320Z" fill="#5c89aa" stroke="#5c89aa"/><path d="M1833,320L1807,499L1907,383Z" fill="#5d85a2" stroke="#5d85a2"/><path d="M1907,383L1807,499L1927,539Z" fill="#4b7b9d" stroke="#4b7b9d"/><path d="M1907,383L1927,539L1956,400Z" fill="#537b98" stroke="#537b98"/><path d="M-36,434L-85,686L-26,509Z" fill="#b7dcf7" stroke="#b7dcf7"/><path d="M-36,434L-26,509L87,435Z" fill="#cde3fa" stroke="#cde3fa"/><path d="M87,435L-26,509L72,530Z" fill="#c4dff8" stroke="#c4dff8"/><path d="M87,435L72,530L131,468Z" fill="#c6dff8" stroke="#c6dff8"/><path d="M131,468L72,530L150,527Z" fill="#bddbf6" stroke="#bddbf6"/><path d="M131,468L150,527L300,491Z" fill="#bddaf5" stroke="#bddaf5"/><path d="M300,491L150,527L266,581Z" fill="#b0d4f2" stroke="#b0d4f2"/><path d="M300,491L266,581L336,513Z" fill="#aed1f1" stroke="#aed1f1"/><path d="M300,491L336,513L347,437Z" fill="#b9d5f3" stroke="#b9d5f3"/><path d="M347,437L336,513L412,492Z" fill="#b7d3f2" stroke="#b7d3f2"/><path d="M412,492L336,513L456,580Z" fill="#a8cdee" stroke="#a8cdee"/><path d="M412,492L456,580L519,497Z" fill="#a6caed" stroke="#a6caed"/><path d="M519,497L456,580L574,524Z" fill="#9dc7eb" stroke="#9dc7eb"/><path d="M519,497L574,524L648,490Z" fill="#a1c8eb" stroke="#a1c8eb"/><path d="M648,490L574,524L612,593Z" fill="#94c2e8" stroke="#94c2e8"/><path d="M648,490L612,593L711,557Z" fill="#8dbfe7" stroke="#8dbfe7"/><path d="M648,490L711,557L704,472Z" fill="#96c3e9" stroke="#96c3e9"/><path d="M704,472L711,557L801,578Z" fill="#88bde5" stroke="#88bde5"/><path d="M704,472L801,578L848,445Z" fill="#8fbfe7" stroke="#8fbfe7"/><path d="M848,445L801,578L947,557Z" fill="#7db8e3" stroke="#7db8e3"/><path d="M848,445L947,557L973,423Z" fill="#85bbe4" stroke="#85bbe4"/><path d="M973,423L947,557L1079,539Z" fill="#73b4e0" stroke="#73b4e0"/><path d="M973,423L1079,539L1098,431Z" fill="#77b6e0" stroke="#77b6e0"/><path d="M1098,431L1079,539L1146,466Z" fill="#6cb2de" stroke="#6cb2de"/><path d="M1146,466L1079,539L1109,587Z" fill="#5dabdb" stroke="#5dabdb"/><path d="M1146,466L1109,587L1244,514Z" fill="#58a9da" stroke="#58a9da"/><path d="M1146,466L1244,514L1258,411Z" fill="#62acdb" stroke="#62acdb"/><path d="M1258,411L1244,514L1343,412Z" fill="#60a9d9" stroke="#60a9d9"/><path d="M1343,412L1244,514L1399,522Z" fill="#52a3d6" stroke="#52a3d6"/><path d="M1343,412L1399,522L1465,486Z" fill="#4e9ed3" stroke="#4e9ed3"/><path d="M1465,486L1399,522L1461,528Z" fill="#4398cd" stroke="#4398cd"/><path d="M1465,486L1461,528L1567,547Z" fill="#4092c6" stroke="#4092c6"/><path d="M1465,486L1567,547L1527,445Z" fill="#4894c5" stroke="#4894c5"/><path d="M1527,445L1567,547L1666,470Z" fill="#498fbe" stroke="#498fbe"/><path d="M1666,470L1567,547L1688,520Z" fill="#4289b6" stroke="#4289b6"/><path d="M1666,470L1688,520L1704,489Z" fill="#4788b2" stroke="#4788b2"/><path d="M1704,489L1688,520L1754,530Z" fill="#4283ae" stroke="#4283ae"/><path d="M1704,489L1754,530L1807,499Z" fill="#4481aa" stroke="#4481aa"/><path d="M1807,499L1754,530L1806,509Z" fill="#427ea5" stroke="#427ea5"/><path d="M1807,499L1806,509L1927,539Z" fill="#40799e" stroke="#40799e"/><path d="M1956,400L1927,539L1944,638Z" fill="#3d7193" stroke="#3d7193"/><path d="M1956,400L1944,638L1997,836Z" fill="#206489" stroke="#206489"/><path d="M-26,509L-85,686L52,650Z" fill="#a2d3f1" stroke="#a2d3f1"/><path d="M-26,509L52,650L72,530Z" fill="#b0d8f4" stroke="#b0d8f4"/><path d="M72,530L52,650L186,613Z" fill="#a3d1f0" stroke="#a3d1f0"/><path d="M72,530L186,613L150,527Z" fill="#aed5f2" stroke="#aed5f2"/><path d="M150,527L186,613L266,581Z" fill="#a6d0f0" stroke="#a6d0f0"/><path d="M266,581L186,613L298,687Z" fill="#95c8eb" stroke="#95c8eb"/><path d="M266,581L298,687L324,679Z" fill="#8fc2e8" stroke="#8fc2e8"/><path d="M266,581L324,679L336,513Z" fill="#9bcaec" stroke="#9bcaec"/><path d="M336,513L324,679L456,580Z" fill="#97c7eb" stroke="#97c7eb"/><path d="M456,580L324,679L434,688Z" fill="#89bde5" stroke="#89bde5"/><path d="M456,580L434,688L517,640Z" fill="#86bde5" stroke="#86bde5"/><path d="M456,580L517,640L574,524Z" fill="#90c1e8" stroke="#90c1e8"/><path d="M574,524L517,640L612,593Z" fill="#8abee6" stroke="#8abee6"/><path d="M612,593L517,640L640,622Z" fill="#7ebae3" stroke="#7ebae3"/><path d="M612,593L640,622L711,557Z" fill="#80bae4" stroke="#80bae4"/><path d="M711,557L640,622L751,693Z" fill="#73b4e0" stroke="#73b4e0"/><path d="M711,557L751,693L801,578Z" fill="#70b4e0" stroke="#70b4e0"/><path d="M801,578L751,693L846,659Z" fill="#66addc" stroke="#66addc"/><path d="M801,578L846,659L947,557Z" fill="#68b0dd" stroke="#68b0dd"/><path d="M947,557L846,659L988,694Z" fill="#59a8d9" stroke="#59a8d9"/><path d="M947,557L988,694L1007,605Z" fill="#54a8d9" stroke="#54a8d9"/><path d="M947,557L1007,605L1079,539Z" fill="#60addc" stroke="#60addc"/><path d="M1079,539L1007,605L1109,587Z" fill="#55a8d9" stroke="#55a8d9"/><path d="M1109,587L1007,605L1112,656Z" fill="#48a3d6" stroke="#48a3d6"/><path d="M1109,587L1112,656L1211,641Z" fill="#3d9ed3" stroke="#3d9ed3"/><path d="M1109,587L1211,641L1244,514Z" fill="#45a1d5" stroke="#45a1d5"/><path d="M1244,514L1211,641L1381,662Z" fill="#3498d0" stroke="#3498d0"/><path d="M1244,514L1381,662L1399,522Z" fill="#3998d0" stroke="#3998d0"/><path d="M1399,522L1381,662L1461,528Z" fill="#3293cc" stroke="#3293cc"/><path d="M1461,528L1381,662L1430,699Z" fill="#228bc7" stroke="#228bc7"/><path d="M1461,528L1430,699L1576,625Z" fill="#2488c0" stroke="#2488c0"/><path d="M1461,528L1576,625L1567,547Z" fill="#338abe" stroke="#338abe"/><path d="M1567,547L1576,625L1630,626Z" fill="#2882b5" stroke="#2882b5"/><path d="M1567,547L1630,626L1688,520Z" fill="#3383b4" stroke="#3383b4"/><path d="M1688,520L1630,626L1727,655Z" fill="#287bab" stroke="#287bab"/><path d="M1688,520L1727,655L1754,530Z" fill="#317ca9" stroke="#317ca9"/><path d="M1754,530L1727,655L1801,689Z" fill="#2173a1" stroke="#2173a1"/><path d="M1754,530L1801,689L1806,509Z" fill="#2f77a1" stroke="#2f77a1"/><path d="M1806,509L1801,689L1927,539Z" fill="#2e729a" stroke="#2e729a"/><path d="M1927,539L1801,689L1944,638Z" fill="#216a92" stroke="#216a92"/><path d="M-85,686L-87,1025L-56,923Z" fill="#91acc7" stroke="#91acc7"/><path d="M-85,686L-56,923L-55,708Z" fill="#91bde2" stroke="#91bde2"/><path d="M-85,686L-55,708L13,700Z" fill="#97c7eb" stroke="#97c7eb"/><path d="M-85,686L13,700L52,650Z" fill="#99c9ec" stroke="#99c9ec"/><path d="M52,650L13,700L147,800Z" fill="#92c0e8" stroke="#92c0e8"/><path d="M52,650L147,800L174,776Z" fill="#8dbae5" stroke="#8dbae5"/><path d="M52,650L174,776L186,613Z" fill="#94c4e9" stroke="#94c4e9"/><path d="M186,613L174,776L223,731Z" fill="#8ebee6" stroke="#8ebee6"/><path d="M186,613L223,731L298,687Z" fill="#90c1e8" stroke="#90c1e8"/><path d="M298,687L223,731L329,765Z" fill="#87b7e2" stroke="#87b7e2"/><path d="M298,687L329,765L324,679Z" fill="#87b8e3" stroke="#87b8e3"/><path d="M324,679L329,765L434,688Z" fill="#84b6e1" stroke="#84b6e1"/><path d="M434,688L329,765L348,815Z" fill="#7faedc" stroke="#7faedc"/><path d="M434,688L348,815L476,700Z" fill="#7eafde" stroke="#7eafde"/><path d="M434,688L476,700L517,640Z" fill="#81b6e1" stroke="#81b6e1"/><path d="M517,640L476,700L549,796Z" fill="#79afde" stroke="#79afde"/><path d="M517,640L549,796L659,713Z" fill="#73abdc" stroke="#73abdc"/><path d="M517,640L659,713L640,622Z" fill="#77b3df" stroke="#77b3df"/><path d="M640,622L659,713L751,693Z" fill="#6eaddd" stroke="#6eaddd"/><path d="M751,693L659,713L717,801Z" fill="#64a2d7" stroke="#64a2d7"/><path d="M751,693L717,801L770,702Z" fill="#61a1d6" stroke="#61a1d6"/><path d="M751,693L770,702L846,659Z" fill="#62a7d9" stroke="#62a7d9"/><path d="M846,659L770,702L889,791Z" fill="#59a0d5" stroke="#59a0d5"/><path d="M846,659L889,791L927,728Z" fill="#539cd3" stroke="#539cd3"/><path d="M846,659L927,728L988,694Z" fill="#53a0d5" stroke="#53a0d5"/><path d="M988,694L927,728L1061,832Z" fill="#4393cd" stroke="#4393cd"/><path d="M988,694L1061,832L1093,756Z" fill="#3c8ec9" stroke="#3c8ec9"/><path d="M988,694L1093,756L1112,656Z" fill="#3e97d0" stroke="#3e97d0"/><path d="M988,694L1112,656L1007,605Z" fill="#48a0d4" stroke="#48a0d4"/><path d="M1112,656L1093,756L1177,733Z" fill="#3591cd" stroke="#3591cd"/><path d="M1112,656L1177,733L1211,641Z" fill="#3495ce" stroke="#3495ce"/><path d="M1211,641L1177,733L1306,786Z" fill="#288ac9" stroke="#288ac9"/><path d="M1211,641L1306,786L1381,662Z" fill="#2489c8" stroke="#2489c8"/><path d="M1381,662L1306,786L1430,699Z" fill="#1a81c4" stroke="#1a81c4"/><path d="M1430,699L1306,786L1407,834Z" fill="#1577bb" stroke="#1577bb"/><path d="M1430,699L1407,834L1469,732Z" fill="#1476ba" stroke="#1476ba"/><path d="M1430,699L1469,732L1576,625Z" fill="#1b7dba" stroke="#1b7dba"/><path d="M1576,625L1469,732L1626,718Z" fill="#1a77b2" stroke="#1a77b2"/><path d="M1576,625L1626,718L1630,626Z" fill="#1e79af" stroke="#1e79af"/><path d="M1630,626L1626,718L1727,655Z" fill="#1d73a8" stroke="#1d73a8"/><path d="M1727,655L1626,718L1741,743Z" fill="#186ba1" stroke="#186ba1"/><path d="M1727,655L1741,743L1801,689Z" fill="#19689c" stroke="#19689c"/><path d="M1801,689L1741,743L1846,720Z" fill="#166295" stroke="#166295"/><path d="M1801,689L1846,720L1944,638Z" fill="#1a6290" stroke="#1a6290"/><path d="M1944,638L1846,720L1930,789Z" fill="#165a89" stroke="#165a89"/><path d="M1944,638L1930,789L1997,836Z" fill="#12507f" stroke="#12507f"/><path d="M-55,708L-56,923L-16,862Z" fill="#91b2d2" stroke="#91b2d2"/><path d="M-55,708L-16,862L7,815Z" fill="#91b7db" stroke="#91b7db"/><path d="M-55,708L7,815L13,700Z" fill="#92c0e7" stroke="#92c0e7"/><path d="M13,700L7,815L147,800Z" fill="#8fb8df" stroke="#8fb8df"/><path d="M174,776L147,800L278,922Z" fill="#89a9cd" stroke="#89a9cd"/><path d="M174,776L278,922L296,802Z" fill="#87a7cc" stroke="#87a7cc"/><path d="M174,776L296,802L223,731Z" fill="#88b2dc" stroke="#88b2dc"/><path d="M223,731L296,802L329,765Z" fill="#85b1dc" stroke="#85b1dc"/><path d="M329,765L296,802L348,815Z" fill="#82aad4" stroke="#82aad4"/><path d="M476,700L348,815L456,897Z" fill="#7ca4cf" stroke="#7ca4cf"/><path d="M476,700L456,897L549,796Z" fill="#77a1cf" stroke="#77a1cf"/><path d="M549,796L456,897L524,895Z" fill="#7697be" stroke="#7697be"/><path d="M549,796L524,895L560,914Z" fill="#7294bb" stroke="#7294bb"/><path d="M549,796L560,914L689,904Z" fill="#6d91ba" stroke="#6d91ba"/><path d="M549,796L689,904L699,889Z" fill="#6990ba" stroke="#6990ba"/><path d="M549,796L699,889L717,801Z" fill="#6896c3" stroke="#6896c3"/><path d="M549,796L717,801L659,713Z" fill="#6aa0d2" stroke="#6aa0d2"/><path d="M770,702L717,801L889,791Z" fill="#5a9ad0" stroke="#5a9ad0"/><path d="M889,791L717,801L853,854Z" fill="#5791c2" stroke="#5791c2"/><path d="M889,791L853,854L913,910Z" fill="#5088b7" stroke="#5088b7"/><path d="M889,791L913,910L988,898Z" fill="#4b84b2" stroke="#4b84b2"/><path d="M889,791L988,898L1061,832Z" fill="#4585b7" stroke="#4585b7"/><path d="M889,791L1061,832L927,728Z" fill="#4890c6" stroke="#4890c6"/><path d="M1093,756L1061,832L1180,886Z" fill="#3381b7" stroke="#3381b7"/><path d="M1093,756L1180,886L1177,733Z" fill="#2e84be" stroke="#2e84be"/><path d="M1177,733L1180,886L1246,840Z" fill="#287cb5" stroke="#287cb5"/><path d="M1177,733L1246,840L1298,794Z" fill="#247ebb" stroke="#247ebb"/><path d="M1177,733L1298,794L1306,786Z" fill="#2280bf" stroke="#2280bf"/><path d="M1298,794L1246,840L1375,899Z" fill="#1d71ab" stroke="#1d71ab"/><path d="M1298,794L1375,899L1407,834Z" fill="#186daa" stroke="#186daa"/><path d="M1298,794L1407,834L1306,786Z" fill="#1a75b4" stroke="#1a75b4"/><path d="M1469,732L1407,834L1510,824Z" fill="#146eac" stroke="#146eac"/><path d="M1469,732L1510,824L1572,780Z" fill="#146dab" stroke="#146dab"/><path d="M1469,732L1572,780L1626,718Z" fill="#146fae" stroke="#146fae"/><path d="M1572,780L1510,824L1623,830Z" fill="#13639d" stroke="#13639d"/><path d="M1572,780L1623,830L1626,718Z" fill="#1366a1" stroke="#1366a1"/><path d="M1626,718L1623,830L1716,820Z" fill="#136098" stroke="#136098"/><path d="M1626,718L1716,820L1741,743Z" fill="#13629b" stroke="#13629b"/><path d="M1741,743L1716,820L1812,819Z" fill="#13588c" stroke="#13588c"/><path d="M1741,743L1812,819L1846,720Z" fill="#125a8f" stroke="#125a8f"/><path d="M1846,720L1812,819L1930,789Z" fill="#125384" stroke="#125384"/><path d="M1930,789L1812,819L1887,914Z" fill="#124872" stroke="#124872"/><path d="M1930,789L1887,914L1997,836Z" fill="#124369" stroke="#124369"/><path d="M-16,862L-56,923L100,938Z" fill="#91a4be" stroke="#91a4be"/><path d="M-16,862L100,938L7,815Z" fill="#90a9c6" stroke="#90a9c6"/><path d="M7,815L100,938L147,800Z" fill="#8eaacb" stroke="#8eaacb"/><path d="M147,800L100,938L137,929Z" fill="#8ca3c0" stroke="#8ca3c0"/><path d="M147,800L137,929L278,922Z" fill="#8aa2c0" stroke="#8aa2c0"/><path d="M296,802L278,922L348,815Z" fill="#83a3c7" stroke="#83a3c7"/><path d="M348,815L278,922L417,926Z" fill="#819abb" stroke="#819abb"/><path d="M348,815L417,926L456,897Z" fill="#7d98bc" stroke="#7d98bc"/><path d="M456,897L417,926L460,1075Z" fill="#7b89a5" stroke="#7b89a5"/><path d="M456,897L460,1075L524,895Z" fill="#7889a7" stroke="#7889a7"/><path d="M524,895L460,1075L560,914Z" fill="#7587a5" stroke="#7587a5"/><path d="M699,889L689,904L799,901Z" fill="#6187af" stroke="#6187af"/><path d="M699,889L799,901L717,801Z" fill="#608cb8" stroke="#608cb8"/><path d="M717,801L799,901L853,854Z" fill="#5b8cb9" stroke="#5b8cb9"/><path d="M853,854L799,901L813,933Z" fill="#5784ad" stroke="#5784ad"/><path d="M853,854L813,933L913,910Z" fill="#5382ac" stroke="#5382ac"/><path d="M988,898L913,910L955,1012Z" fill="#48779f" stroke="#48779f"/><path d="M988,898L955,1012L1029,909Z" fill="#43759e" stroke="#43759e"/><path d="M988,898L1029,909L1061,832Z" fill="#3f7cac" stroke="#3f7cac"/><path d="M1061,832L1029,909L1135,905Z" fill="#3879a9" stroke="#3879a9"/><path d="M1061,832L1135,905L1180,886Z" fill="#3178aa" stroke="#3178aa"/><path d="M1180,886L1135,905L1253,1038Z" fill="#2a6996" stroke="#2a6996"/><path d="M1180,886L1253,1038L1288,966Z" fill="#24628f" stroke="#24628f"/><path d="M1180,886L1288,966L1246,840Z" fill="#246da0" stroke="#246da0"/><path d="M1246,840L1288,966L1375,899Z" fill="#1e689d" stroke="#1e689d"/><path d="M1375,899L1288,966L1388,925Z" fill="#196094" stroke="#196094"/><path d="M1375,899L1388,925L1407,834Z" fill="#14649e" stroke="#14649e"/><path d="M1407,834L1388,925L1510,824Z" fill="#14659f" stroke="#14659f"/><path d="M1510,824L1388,925L1521,970Z" fill="#145b8f" stroke="#145b8f"/><path d="M1510,824L1521,970L1623,830Z" fill="#145b8e" stroke="#145b8e"/><path d="M1623,830L1521,970L1687,940Z" fill="#13507e" stroke="#13507e"/><path d="M1623,830L1687,940L1716,820Z" fill="#135383" stroke="#135383"/><path d="M1716,820L1687,940L1812,819Z" fill="#134f7d" stroke="#134f7d"/><path d="M1812,819L1687,940L1809,1006Z" fill="#13436a" stroke="#13436a"/><path d="M1812,819L1809,1006L1887,914Z" fill="#123f64" stroke="#123f64"/><path d="M1997,836L1887,914L1983,992Z" fill="#123656" stroke="#123656"/><path d="M-56,923L-87,1025L112,1036Z" fill="#9197a8" stroke="#9197a8"/><path d="M-56,923L112,1036L100,938Z" fill="#8f99ae" stroke="#8f99ae"/><path d="M100,938L112,1036L137,929Z" fill="#8c97ac" stroke="#8c97ac"/><path d="M137,929L112,1036L247,1028Z" fill="#8a90a4" stroke="#8a90a4"/><path d="M137,929L247,1028L278,922Z" fill="#8894ac" stroke="#8894ac"/><path d="M278,922L247,1028L374,969Z" fill="#848fa7" stroke="#848fa7"/><path d="M278,922L374,969L417,926Z" fill="#8091ae" stroke="#8091ae"/><path d="M374,969L247,1028L356,1045Z" fill="#82879c" stroke="#82879c"/><path d="M374,969L356,1045L460,1075Z" fill="#7e8196" stroke="#7e8196"/><path d="M374,969L460,1075L417,926Z" fill="#7d86a0" stroke="#7d86a0"/><path d="M560,914L460,1075L586,1075Z" fill="#737c95" stroke="#737c95"/><path d="M560,914L586,1075L683,1024Z" fill="#6d7b97" stroke="#6d7b97"/><path d="M560,914L683,1024L689,904Z" fill="#6983a5" stroke="#6983a5"/><path d="M689,904L683,1024L813,933Z" fill="#617ea1" stroke="#617ea1"/><path d="M689,904L813,933L799,901Z" fill="#5d83ab" stroke="#5d83ab"/><path d="M813,933L683,1024L787,1086Z" fill="#5e7391" stroke="#5e7391"/><path d="M813,933L787,1086L849,1060Z" fill="#586f8d" stroke="#586f8d"/><path d="M813,933L849,1060L913,910Z" fill="#53779b" stroke="#53779b"/><path d="M913,910L849,1060L955,1012Z" fill="#4e7093" stroke="#4e7093"/><path d="M1029,909L955,1012L1009,1090Z" fill="#426a8d" stroke="#426a8d"/><path d="M1029,909L1009,1090L1169,1061Z" fill="#396487" stroke="#396487"/><path d="M1029,909L1169,1061L1135,905Z" fill="#336b95" stroke="#336b95"/><path d="M1135,905L1169,1061L1253,1038Z" fill="#2a6088" stroke="#2a6088"/><path d="M1288,966L1253,1038L1316,1048Z" fill="#1f5780" stroke="#1f5780"/><path d="M1288,966L1316,1048L1409,981Z" fill="#1a5683" stroke="#1a5683"/><path d="M1288,966L1409,981L1388,925Z" fill="#175b8d" stroke="#175b8d"/><path d="M1388,925L1409,981L1521,970Z" fill="#145586" stroke="#145586"/><path d="M1409,981L1316,1048L1415,1047Z" fill="#154f7b" stroke="#154f7b"/><path d="M1409,981L1415,1047L1503,1060Z" fill="#144a74" stroke="#144a74"/><path d="M1409,981L1503,1060L1521,970Z" fill="#144b76" stroke="#144b76"/><path d="M1521,970L1503,1060L1688,1057Z" fill="#134065" stroke="#134065"/><path d="M1521,970L1688,1057L1687,940Z" fill="#134268" stroke="#134268"/><path d="M1687,940L1688,1057L1716,999Z" fill="#133c5e" stroke="#133c5e"/><path d="M1687,940L1716,999L1809,1006Z" fill="#133b5e" stroke="#133b5e"/><path d="M1716,999L1688,1057L1784,1041Z" fill="#133452" stroke="#133452"/><path d="M1716,999L1784,1041L1809,1006Z" fill="#133452" stroke="#133452"/><path d="M1887,914L1809,1006L1983,992Z" fill="#12324f" stroke="#12324f"/><path d="M1983,992L1809,1006L1949,1096Z" fill="#12263e" stroke="#12263e"/><path d="M-87,1025L97,1095L112,1036Z" fill="#908c98" stroke="#908c98"/><path d="M97,1095L1949,1096L1009,1090Z" fill="#405a76" stroke="#405a76"/><path d="M97,1095L1009,1090L787,1086Z" fill="#6b6d81" stroke="#6b6d81"/><path d="M97,1095L787,1086L460,1075Z" fill="#7b7587" stroke="#7b7587"/><path d="M97,1095L460,1075L356,1045Z" fill="#837e8e" stroke="#837e8e"/><path d="M97,1095L356,1045L247,1028Z" fill="#888494" stroke="#888494"/><path d="M97,1095L247,1028L112,1036Z" fill="#8b8896" stroke="#8b8896"/><path d="M460,1075L787,1086L586,1075Z" fill="#6c6f85" stroke="#6c6f85"/><path d="M586,1075L787,1086L683,1024Z" fill="#666f87" stroke="#666f87"/><path d="M787,1086L1009,1090L849,1060Z" fill="#51647e" stroke="#51647e"/><path d="M849,1060L1009,1090L955,1012Z" fill="#4a6582" stroke="#4a6582"/><path d="M1009,1090L1949,1096L1503,1060Z" fill="#143e61" stroke="#143e61"/><path d="M1009,1090L1503,1060L1169,1061Z" fill="#265275" stroke="#265275"/><path d="M1169,1061L1503,1060L1316,1048Z" fill="#1b4d75" stroke="#1b4d75"/><path d="M1169,1061L1316,1048L1253,1038Z" fill="#24547a" stroke="#24547a"/><path d="M1316,1048L1503,1060L1415,1047Z" fill="#144871" stroke="#144871"/><path d="M1503,1060L1949,1096L1688,1057Z" fill="#132f4a" stroke="#132f4a"/><path d="M1688,1057L1949,1096L1784,1041Z" fill="#122941" stroke="#122941"/><path d="M1784,1041L1949,1096L1809,1006Z" fill="#122941" stroke="#122941"/></g></svg>