<svg width="1855" height="995" xmlns="http://www.w3.org/2000/svg"><g><path d="M-21,-14L-80,56L57,32Z" fill="#f6fcfe" stroke="#f6fcfe"/><path d="M-21,-14L57,32L53,-75Z" fill="#f4fbfc" stroke="#f4fbfc"/><path d="M53,-75L57,32L151,-73Z" fill="#f1fafa" stroke="#f1fafa"/><path d="M53,-75L151,-73L254,-86Z" fill="#edf8f7" stroke="#edf8f7"/><path d="M151,-73L57,32L198,51Z" fill="#eef9f8" stroke="#eef9f8"/><path d="M151,-73L198,51L254,-86Z" fill="#eaf7f5" stroke="#eaf7f5"/><path d="M254,-86L198,51L286,21Z" fill="#e7f6f4" stroke="#e7f6f4"/><path d="M254,-86L286,21L382,-1Z" fill="#e2f4f0" stroke="#e2f4f0"/><path d="M254,-86L382,-1L412,-31Z" fill="#def3ee" stroke="#def3ee"/><path d="M254,-86L412,-31L570,-49Z" fill="#d8f0eb" stroke="#d8f0eb"/><path d="M254,-86L570,-49L843,-58Z" fill="#caebe2" stroke="#caebe2"/><path d="M254,-86L843,-58L1084,-61Z" fill="#b9e4d6" stroke="#b9e4d6"/><path d="M254,-86L1084,-61L1592,-80Z" fill="#a6dac2" stroke="#a6dac2"/><path d="M382,-1L286,21L368,14Z" fill="#def3ee" stroke="#def3ee"/><path d="M382,-1L368,14L403,45Z" fill="#d9f1ec" stroke="#d9f1ec"/><path d="M382,-1L403,45L412,-31Z" fill="#d9f1eb" stroke="#d9f1eb"/><path d="M412,-31L403,45L535,76Z" fill="#d2efe9" stroke="#d2efe9"/><path d="M412,-31L535,76L570,-49Z" fill="#cfede6" stroke="#cfede6"/><path d="M570,-49L535,76L615,13Z" fill="#c8eae1" stroke="#c8eae1"/><path d="M570,-49L615,13L613,-14Z" fill="#c6e9df" stroke="#c6e9df"/><path d="M570,-49L613,-14L796,-40Z" fill="#c0e6db" stroke="#c0e6db"/><path d="M570,-49L796,-40L843,-58Z" fill="#b8e3d6" stroke="#b8e3d6"/><path d="M613,-14L615,13L753,49Z" fill="#bfe6db" stroke="#bfe6db"/><path d="M613,-14L753,49L796,-40Z" fill="#bae4d7" stroke="#bae4d7"/><path d="M796,-40L753,49L867,71Z" fill="#b1e0d1" stroke="#b1e0d1"/><path d="M796,-40L867,71L843,-58Z" fill="#b0dfce" stroke="#b0dfce"/><path d="M843,-58L867,71L946,-6Z" fill="#acddca" stroke="#acddca"/><path d="M843,-58L946,-6L1084,-61Z" fill="#a7dbc4" stroke="#a7dbc4"/><path d="M946,-6L867,71L989,61Z" fill="#a7dcc6" stroke="#a7dcc6"/><path d="M946,-6L989,61L1063,34Z" fill="#a3d9c0" stroke="#a3d9c0"/><path d="M946,-6L1063,34L1084,-61Z" fill="#a2d8bd" stroke="#a2d8bd"/><path d="M1084,-61L1063,34L1124,-41Z" fill="#9fd5b8" stroke="#9fd5b8"/><path d="M1084,-61L1124,-41L1378,-44Z" fill="#99ceae" stroke="#99ceae"/><path d="M1084,-61L1378,-44L1592,-80Z" fill="#90c3a1" stroke="#90c3a1"/><path d="M1124,-41L1063,34L1199,83Z" fill="#9bd2b4" stroke="#9bd2b4"/><path d="M1124,-41L1199,83L1233,43Z" fill="#98ceaf" stroke="#98ceaf"/><path d="M1124,-41L1233,43L1267,-11Z" fill="#98cdad" stroke="#98cdad"/><path d="M1124,-41L1267,-11L1378,-44Z" fill="#95caa9" stroke="#95caa9"/><path d="M1267,-11L1233,43L1359,27Z" fill="#92c8a6" stroke="#92c8a6"/><path d="M1267,-11L1359,27L1378,-44Z" fill="#91c4a2" stroke="#91c4a2"/><path d="M1378,-44L1359,27L1409,-22Z" fill="#8dc09f" stroke="#8dc09f"/><path d="M1378,-44L1409,-22L1592,-80Z" fill="#88b89a" stroke="#88b89a"/><path d="M1409,-22L1359,27L1412,107Z" fill="#8bbf9e" stroke="#8bbf9e"/><path d="M1409,-22L1412,107L1494,74Z" fill="#88ba9b" stroke="#88ba9b"/><path d="M1409,-22L1494,74L1516,34Z" fill="#86b799" stroke="#86b799"/><path d="M1409,-22L1516,34L1592,-80Z" fill="#85b497" stroke="#85b497"/><path d="M1592,-80L1516,34L1611,-64Z" fill="#81ad93" stroke="#81ad93"/><path d="M1592,-80L1611,-64L1711,-58Z" fill="#80a78f" stroke="#80a78f"/><path d="M1611,-64L1516,34L1630,53Z" fill="#80ac92" stroke="#80ac92"/><path d="M1611,-64L1630,53L1711,-58Z" fill="#80a68e" stroke="#80a68e"/><path d="M1711,-58L1630,53L1736,54Z" fill="#7fa28b" stroke="#7fa28b"/><path d="M1711,-58L1736,54L1823,6Z" fill="#809c87" stroke="#809c87"/><path d="M1711,-58L1823,6L1838,-12Z" fill="#809885" stroke="#809885"/><path d="M1711,-58L1838,-12L1985,-7Z" fill="#809382" stroke="#809382"/><path d="M1838,-12L1823,6L1932,86Z" fill="#7f9181" stroke="#7f9181"/><path d="M1838,-12L1932,86L1985,-7Z" fill="#7f8c80" stroke="#7f8c80"/><path d="M1985,-7L1932,86L1929,310Z" fill="#7a8980" stroke="#7a8980"/><path d="M1985,-7L1929,310L1981,459Z" fill="#62887a" stroke="#62887a"/><path d="M1985,-7L1981,459L1994,680Z" fill="#477e6a" stroke="#477e6a"/><path d="M-80,56L-96,293L-60,151Z" fill="#f0fefe" stroke="#f0fefe"/><path d="M-80,56L-60,151L3,166Z" fill="#f4fdff" stroke="#f4fdff"/><path d="M-80,56L3,166L57,32Z" fill="#f3fcfe" stroke="#f3fcfe"/><path d="M57,32L3,166L156,188Z" fill="#ecfafa" stroke="#ecfafa"/><path d="M57,32L156,188L198,51Z" fill="#eaf9f8" stroke="#eaf9f8"/><path d="M198,51L156,188L216,141Z" fill="#e5f7f6" stroke="#e5f7f6"/><path d="M198,51L216,141L286,21Z" fill="#e5f6f4" stroke="#e5f6f4"/><path d="M286,21L216,141L358,159Z" fill="#dff5f2" stroke="#dff5f2"/><path d="M286,21L358,159L368,14Z" fill="#dcf3ef" stroke="#dcf3ef"/><path d="M368,14L358,159L403,45Z" fill="#d8f2ed" stroke="#d8f2ed"/><path d="M403,45L358,159L486,190Z" fill="#d2f0eb" stroke="#d2f0eb"/><path d="M403,45L486,190L526,105Z" fill="#cdeee7" stroke="#cdeee7"/><path d="M403,45L526,105L535,76Z" fill="#cdede7" stroke="#cdede7"/><path d="M535,76L526,105L623,125Z" fill="#c5eae2" stroke="#c5eae2"/><path d="M535,76L623,125L615,13Z" fill="#c3e9e0" stroke="#c3e9e0"/><path d="M615,13L623,125L753,49Z" fill="#bde6db" stroke="#bde6db"/><path d="M753,49L623,125L779,130Z" fill="#b6e4d7" stroke="#b6e4d7"/><path d="M753,49L779,130L867,71Z" fill="#afe1d1" stroke="#afe1d1"/><path d="M867,71L779,130L858,123Z" fill="#abdfce" stroke="#abdfce"/><path d="M867,71L858,123L983,154Z" fill="#a6ddc8" stroke="#a6ddc8"/><path d="M867,71L983,154L989,61Z" fill="#a4dbc5" stroke="#a4dbc5"/><path d="M989,61L983,154L1034,149Z" fill="#9fd9c0" stroke="#9fd9c0"/><path d="M989,61L1034,149L1063,34Z" fill="#9fd8bd" stroke="#9fd8bd"/><path d="M1063,34L1034,149L1144,136Z" fill="#9bd5b9" stroke="#9bd5b9"/><path d="M1063,34L1144,136L1199,83Z" fill="#98d2b4" stroke="#98d2b4"/><path d="M1199,83L1144,136L1225,187Z" fill="#93ceaf" stroke="#93ceaf"/><path d="M1199,83L1225,187L1233,43Z" fill="#93ccac" stroke="#93ccac"/><path d="M1233,43L1225,187L1391,175Z" fill="#8ec8a6" stroke="#8ec8a6"/><path d="M1233,43L1391,175L1359,27Z" fill="#8ec5a2" stroke="#8ec5a2"/><path d="M1359,27L1391,175L1412,107Z" fill="#89bf9e" stroke="#89bf9e"/><path d="M1494,74L1412,107L1508,178Z" fill="#83b799" stroke="#83b799"/><path d="M1494,74L1508,178L1619,176Z" fill="#7db195" stroke="#7db195"/><path d="M1494,74L1619,176L1630,53Z" fill="#7cad92" stroke="#7cad92"/><path d="M1494,74L1630,53L1516,34Z" fill="#80b094" stroke="#80b094"/><path d="M1630,53L1619,176L1733,121Z" fill="#7ba58d" stroke="#7ba58d"/><path d="M1630,53L1733,121L1736,54Z" fill="#7da18b" stroke="#7da18b"/><path d="M1736,54L1733,121L1881,119Z" fill="#7c9986" stroke="#7c9986"/><path d="M1736,54L1881,119L1823,6Z" fill="#7d9684" stroke="#7d9684"/><path d="M1823,6L1881,119L1932,86Z" fill="#7d9080" stroke="#7d9080"/><path d="M1932,86L1881,119L1909,148Z" fill="#7b8d80" stroke="#7b8d80"/><path d="M1932,86L1909,148L1910,243Z" fill="#768c7f" stroke="#768c7f"/><path d="M1932,86L1910,243L1929,310Z" fill="#6b8c7c" stroke="#6b8c7c"/><path d="M-60,151L-96,293L25,245Z" fill="#e0fdfa" stroke="#e0fdfa"/><path d="M-60,151L25,245L3,166Z" fill="#e7fcfb" stroke="#e7fcfb"/><path d="M3,166L25,245L156,188Z" fill="#e0faf8" stroke="#e0faf8"/><path d="M156,188L25,245L156,214Z" fill="#d9f9f5" stroke="#d9f9f5"/><path d="M156,188L156,214L225,257Z" fill="#d5f8f2" stroke="#d5f8f2"/><path d="M156,188L225,257L216,141Z" fill="#d8f7f2" stroke="#d8f7f2"/><path d="M216,141L225,257L341,200Z" fill="#d4f6f0" stroke="#d4f6f0"/><path d="M216,141L341,200L358,159Z" fill="#d6f4ef" stroke="#d6f4ef"/><path d="M358,159L341,200L432,257Z" fill="#c7f2e9" stroke="#c7f2e9"/><path d="M358,159L432,257L486,190Z" fill="#c3f0e7" stroke="#c3f0e7"/><path d="M486,190L432,257L534,204Z" fill="#bbede3" stroke="#bbede3"/><path d="M486,190L534,204L526,105Z" fill="#c3ece4" stroke="#c3ece4"/><path d="M526,105L534,204L623,125Z" fill="#c3eae2" stroke="#c3eae2"/><path d="M623,125L534,204L661,210Z" fill="#b7e9dd" stroke="#b7e9dd"/><path d="M623,125L661,210L779,130Z" fill="#b4e5d9" stroke="#b4e5d9"/><path d="M779,130L661,210L783,219Z" fill="#a8e3d3" stroke="#a8e3d3"/><path d="M779,130L783,219L807,225Z" fill="#a3e1d0" stroke="#a3e1d0"/><path d="M779,130L807,225L858,123Z" fill="#a8e0cf" stroke="#a8e0cf"/><path d="M858,123L807,225L939,236Z" fill="#9cdec8" stroke="#9cdec8"/><path d="M858,123L939,236L983,154Z" fill="#9edcc5" stroke="#9edcc5"/><path d="M983,154L939,236L1012,227Z" fill="#92dabe" stroke="#92dabe"/><path d="M983,154L1012,227L1034,149Z" fill="#96d9bd" stroke="#96d9bd"/><path d="M1034,149L1012,227L1144,136Z" fill="#94d7b9" stroke="#94d7b9"/><path d="M1144,136L1012,227L1198,211Z" fill="#8cd3b3" stroke="#8cd3b3"/><path d="M1144,136L1198,211L1225,187Z" fill="#8bcead" stroke="#8bcead"/><path d="M1225,187L1198,211L1259,244Z" fill="#81cca7" stroke="#81cca7"/><path d="M1225,187L1259,244L1391,175Z" fill="#80c7a2" stroke="#80c7a2"/><path d="M1391,175L1259,244L1378,297Z" fill="#76c49c" stroke="#76c49c"/><path d="M1391,175L1378,297L1426,287Z" fill="#6ebe98" stroke="#6ebe98"/><path d="M1391,175L1426,287L1508,178Z" fill="#74ba97" stroke="#74ba97"/><path d="M1391,175L1508,178L1412,107Z" fill="#81ba9b" stroke="#81ba9b"/><path d="M1508,178L1426,287L1534,201Z" fill="#6fb594" stroke="#6fb594"/><path d="M1508,178L1534,201L1619,176Z" fill="#73af92" stroke="#73af92"/><path d="M1619,176L1534,201L1651,218Z" fill="#6eab8e" stroke="#6eab8e"/><path d="M1619,176L1651,218L1733,121Z" fill="#73a48b" stroke="#73a48b"/><path d="M1733,121L1651,218L1782,261Z" fill="#6d9f87" stroke="#6d9f87"/><path d="M1733,121L1782,261L1881,119Z" fill="#749883" stroke="#749883"/><path d="M1881,119L1782,261L1909,148Z" fill="#72927f" stroke="#72927f"/><path d="M1909,148L1782,261L1910,243Z" fill="#6a917d" stroke="#6a917d"/><path d="M-96,293L-97,714L-93,661Z" fill="#a5e7c9" stroke="#a5e7c9"/><path d="M-96,293L-93,661L-88,584Z" fill="#abead1" stroke="#abead1"/><path d="M-96,293L-88,584L-74,317Z" fill="#bff4e6" stroke="#bff4e6"/><path d="M-96,293L-74,317L25,245Z" fill="#d5fdf8" stroke="#d5fdf8"/><path d="M25,245L-74,317L53,306Z" fill="#d1fbf5" stroke="#d1fbf5"/><path d="M25,245L53,306L156,214Z" fill="#d3faf4" stroke="#d3faf4"/><path d="M156,214L53,306L174,315Z" fill="#cbf9f1" stroke="#cbf9f1"/><path d="M156,214L174,315L225,257Z" fill="#cbf8ef" stroke="#cbf8ef"/><path d="M225,257L174,315L289,332Z" fill="#c0f5ea" stroke="#c0f5ea"/><path d="M225,257L289,332L341,200Z" fill="#c4f5eb" stroke="#c4f5eb"/><path d="M341,200L289,332L373,306Z" fill="#bcf3e8" stroke="#bcf3e8"/><path d="M341,200L373,306L432,257Z" fill="#bcf1e6" stroke="#bcf1e6"/><path d="M432,257L373,306L420,366Z" fill="#aeeedf" stroke="#aeeedf"/><path d="M432,257L420,366L563,305Z" fill="#a8ecdc" stroke="#a8ecdc"/><path d="M432,257L563,305L534,204Z" fill="#b0eddf" stroke="#b0eddf"/><path d="M534,204L563,305L661,210Z" fill="#ace9db" stroke="#ace9db"/><path d="M661,210L563,305L617,355Z" fill="#9fe8d6" stroke="#9fe8d6"/><path d="M661,210L617,355L731,382Z" fill="#94e3ce" stroke="#94e3ce"/><path d="M661,210L731,382L783,219Z" fill="#98e4d0" stroke="#98e4d0"/><path d="M783,219L731,382L801,354Z" fill="#89dfc6" stroke="#89dfc6"/><path d="M783,219L801,354L807,225Z" fill="#92e1cb" stroke="#92e1cb"/><path d="M807,225L801,354L939,236Z" fill="#8ddfc6" stroke="#8ddfc6"/><path d="M939,236L801,354L945,397Z" fill="#7ed9bb" stroke="#7ed9bb"/><path d="M939,236L945,397L1030,313Z" fill="#7bd8b6" stroke="#7bd8b6"/><path d="M939,236L1030,313L1012,227Z" fill="#86d9bb" stroke="#86d9bb"/><path d="M1012,227L1030,313L1198,211Z" fill="#82d5b3" stroke="#82d5b3"/><path d="M1198,211L1030,313L1145,353Z" fill="#77d2ac" stroke="#77d2ac"/><path d="M1198,211L1145,353L1259,244Z" fill="#77cda7" stroke="#77cda7"/><path d="M1259,244L1145,353L1285,343Z" fill="#6cc99f" stroke="#6cc99f"/><path d="M1259,244L1285,343L1378,297Z" fill="#6cc59b" stroke="#6cc59b"/><path d="M1378,297L1285,343L1334,370Z" fill="#61c092" stroke="#61c092"/><path d="M1378,297L1334,370L1485,361Z" fill="#5bb98d" stroke="#5bb98d"/><path d="M1378,297L1485,361L1426,287Z" fill="#5fb98f" stroke="#5fb98f"/><path d="M1426,287L1485,361L1534,201Z" fill="#63b691" stroke="#63b691"/><path d="M1534,201L1485,361L1639,325Z" fill="#5bae8b" stroke="#5bae8b"/><path d="M1534,201L1639,325L1651,218Z" fill="#63aa8b" stroke="#63aa8b"/><path d="M1651,218L1639,325L1782,261Z" fill="#5fa285" stroke="#5fa285"/><path d="M1782,261L1639,325L1787,312Z" fill="#589c7f" stroke="#589c7f"/><path d="M1782,261L1787,312L1864,316Z" fill="#59957a" stroke="#59957a"/><path d="M1782,261L1864,316L1899,291Z" fill="#5a9279" stroke="#5a9279"/><path d="M1782,261L1899,291L1910,243Z" fill="#5f917a" stroke="#5f917a"/><path d="M1899,291L1864,316L1929,310Z" fill="#578c75" stroke="#578c75"/><path d="M1899,291L1929,310L1910,243Z" fill="#5c8d78" stroke="#5c8d78"/><path d="M-74,317L-88,584L-27,474Z" fill="#b2efdc" stroke="#b2efdc"/><path d="M-74,317L-27,474L56,441Z" fill="#b8f2e3" stroke="#b8f2e3"/><path d="M-74,317L56,441L53,306Z" fill="#c2f5ea" stroke="#c2f5ea"/><path d="M53,306L56,441L187,409Z" fill="#b6f1e2" stroke="#b6f1e2"/><path d="M53,306L187,409L174,315Z" fill="#bdf4e7" stroke="#bdf4e7"/><path d="M174,315L187,409L253,403Z" fill="#b2f0e0" stroke="#b2f0e0"/><path d="M174,315L253,403L289,332Z" fill="#b5f1e2" stroke="#b5f1e2"/><path d="M289,332L253,403L337,485Z" fill="#a4ead7" stroke="#a4ead7"/><path d="M289,332L337,485L420,366Z" fill="#a2e9d6" stroke="#a2e9d6"/><path d="M289,332L420,366L373,306Z" fill="#adeede" stroke="#adeede"/><path d="M420,366L337,485L495,477Z" fill="#92e3ca" stroke="#92e3ca"/><path d="M420,366L495,477L563,305Z" fill="#96e5d0" stroke="#96e5d0"/><path d="M563,305L495,477L596,457Z" fill="#8ae0c7" stroke="#8ae0c7"/><path d="M563,305L596,457L617,355Z" fill="#8fe2cb" stroke="#8fe2cb"/><path d="M617,355L596,457L731,382Z" fill="#84ddc3" stroke="#84ddc3"/><path d="M731,382L596,457L669,496Z" fill="#79d9ba" stroke="#79d9ba"/><path d="M731,382L669,496L775,483Z" fill="#72d5b4" stroke="#72d5b4"/><path d="M731,382L775,483L806,474Z" fill="#6fd4b2" stroke="#6fd4b2"/><path d="M731,382L806,474L801,354Z" fill="#76d7b9" stroke="#76d7b9"/><path d="M801,354L806,474L941,418Z" fill="#6ed4b1" stroke="#6ed4b1"/><path d="M801,354L941,418L945,397Z" fill="#71d4b1" stroke="#71d4b1"/><path d="M945,397L941,418L1004,403Z" fill="#68d0a9" stroke="#68d0a9"/><path d="M945,397L1004,403L1030,313Z" fill="#6ed2ac" stroke="#6ed2ac"/><path d="M1030,313L1004,403L1118,430Z" fill="#67cfa5" stroke="#67cfa5"/><path d="M1030,313L1118,430L1145,353Z" fill="#68cda3" stroke="#68cda3"/><path d="M1145,353L1118,430L1236,417Z" fill="#5dc697" stroke="#5dc697"/><path d="M1145,353L1236,417L1285,343Z" fill="#60c597" stroke="#60c597"/><path d="M1285,343L1236,417L1334,370Z" fill="#5bc090" stroke="#5bc090"/><path d="M1334,370L1236,417L1296,515Z" fill="#4fbb87" stroke="#4fbb87"/><path d="M1334,370L1296,515L1385,459Z" fill="#4ab680" stroke="#4ab680"/><path d="M1334,370L1385,459L1485,361Z" fill="#50b484" stroke="#50b484"/><path d="M1485,361L1385,459L1444,478Z" fill="#46ae7d" stroke="#46ae7d"/><path d="M1485,361L1444,478L1508,410Z" fill="#46ab7d" stroke="#46ab7d"/><path d="M1485,361L1508,410L1565,390Z" fill="#4aaa7f" stroke="#4aaa7f"/><path d="M1485,361L1565,390L1639,325Z" fill="#4da880" stroke="#4da880"/><path d="M1565,390L1508,410L1606,405Z" fill="#44a57a" stroke="#44a57a"/><path d="M1565,390L1606,405L1639,325Z" fill="#48a37b" stroke="#48a37b"/><path d="M1639,325L1606,405L1789,467Z" fill="#439a73" stroke="#439a73"/><path d="M1639,325L1789,467L1814,417Z" fill="#42936e" stroke="#42936e"/><path d="M1639,325L1814,417L1787,312Z" fill="#4d9776" stroke="#4d9776"/><path d="M1787,312L1814,417L1864,316Z" fill="#4e9072" stroke="#4e9072"/><path d="M1864,316L1814,417L1929,310Z" fill="#4e8b6f" stroke="#4e8b6f"/><path d="M1929,310L1814,417L1981,459Z" fill="#438467" stroke="#438467"/><path d="M-27,474L-88,584L64,615Z" fill="#a0e5c7" stroke="#a0e5c7"/><path d="M-27,474L64,615L79,513Z" fill="#a0e6c9" stroke="#a0e6c9"/><path d="M-27,474L79,513L56,441Z" fill="#aaebd5" stroke="#aaebd5"/><path d="M56,441L79,513L187,409Z" fill="#a8ebd6" stroke="#a8ebd6"/><path d="M187,409L79,513L175,535Z" fill="#a1e7ce" stroke="#a1e7ce"/><path d="M187,409L175,535L238,540Z" fill="#9ce5cb" stroke="#9ce5cb"/><path d="M187,409L238,540L253,403Z" fill="#a1e9d2" stroke="#a1e9d2"/><path d="M253,403L238,540L337,485Z" fill="#9ae5cb" stroke="#9ae5cb"/><path d="M337,485L238,540L326,585Z" fill="#8edfbe" stroke="#8edfbe"/><path d="M337,485L326,585L470,580Z" fill="#85dbb7" stroke="#85dbb7"/><path d="M337,485L470,580L495,477Z" fill="#85dcbb" stroke="#85dcbb"/><path d="M495,477L470,580L595,519Z" fill="#7bd8b4" stroke="#7bd8b4"/><path d="M495,477L595,519L596,457Z" fill="#7dd9ba" stroke="#7dd9ba"/><path d="M596,457L595,519L669,496Z" fill="#77d7b4" stroke="#77d7b4"/><path d="M669,496L595,519L632,591Z" fill="#6ed3ab" stroke="#6ed3ab"/><path d="M669,496L632,591L737,549Z" fill="#68d0a5" stroke="#68d0a5"/><path d="M669,496L737,549L775,483Z" fill="#69d1a9" stroke="#69d1a9"/><path d="M775,483L737,549L835,573Z" fill="#60cca0" stroke="#60cca0"/><path d="M775,483L835,573L806,474Z" fill="#62cda3" stroke="#62cda3"/><path d="M806,474L835,573L941,418Z" fill="#62cda3" stroke="#62cda3"/><path d="M941,418L835,573L988,583Z" fill="#58c796" stroke="#58c796"/><path d="M941,418L988,583L1004,403Z" fill="#5cca9c" stroke="#5cca9c"/><path d="M1004,403L988,583L1092,566Z" fill="#51c48f" stroke="#51c48f"/><path d="M1004,403L1092,566L1118,430Z" fill="#57c795" stroke="#57c795"/><path d="M1118,430L1092,566L1136,542Z" fill="#4dc088" stroke="#4dc088"/><path d="M1118,430L1136,542L1236,417Z" fill="#52c18d" stroke="#52c18d"/><path d="M1236,417L1136,542L1296,515Z" fill="#4abb82" stroke="#4abb82"/><path d="M1385,459L1296,515L1394,561Z" fill="#3faf72" stroke="#3faf72"/><path d="M1385,459L1394,561L1442,501Z" fill="#3caa70" stroke="#3caa70"/><path d="M1385,459L1442,501L1444,478Z" fill="#40ab75" stroke="#40ab75"/><path d="M1444,478L1442,501L1595,554Z" fill="#36a26a" stroke="#36a26a"/><path d="M1444,478L1595,554L1508,410Z" fill="#39a26e" stroke="#39a26e"/><path d="M1508,410L1595,554L1606,405Z" fill="#3a9f70" stroke="#3a9f70"/><path d="M1606,405L1595,554L1711,566Z" fill="#309461" stroke="#309461"/><path d="M1606,405L1711,566L1789,467Z" fill="#359063" stroke="#359063"/><path d="M1789,467L1711,566L1756,627Z" fill="#298652" stroke="#298652"/><path d="M1789,467L1756,627L1899,567Z" fill="#29804e" stroke="#29804e"/><path d="M1789,467L1899,567L1814,417Z" fill="#34835a" stroke="#34835a"/><path d="M1814,417L1899,567L1970,517Z" fill="#317c54" stroke="#317c54"/><path d="M1814,417L1970,517L1981,459Z" fill="#377d5b" stroke="#377d5b"/><path d="M1981,459L1970,517L1994,680Z" fill="#29704a" stroke="#29704a"/><path d="M-88,584L-93,661L64,615Z" fill="#99ddbb" stroke="#99ddbb"/><path d="M79,513L64,615L175,535Z" fill="#99e2c3" stroke="#99e2c3"/><path d="M175,535L64,615L143,681Z" fill="#90dbb7" stroke="#90dbb7"/><path d="M175,535L143,681L255,633Z" fill="#8bd8b3" stroke="#8bd8b3"/><path d="M175,535L255,633L238,540Z" fill="#8fdfbb" stroke="#8fdfbb"/><path d="M238,540L255,633L326,585Z" fill="#8adbb6" stroke="#8adbb6"/><path d="M326,585L255,633L339,684Z" fill="#80d3aa" stroke="#80d3aa"/><path d="M326,585L339,684L470,580Z" fill="#7cd2aa" stroke="#7cd2aa"/><path d="M470,580L339,684L486,667Z" fill="#73cca1" stroke="#73cca1"/><path d="M470,580L486,667L576,656Z" fill="#6dcb9f" stroke="#6dcb9f"/><path d="M470,580L576,656L595,519Z" fill="#70d1a7" stroke="#70d1a7"/><path d="M595,519L576,656L632,591Z" fill="#6acea2" stroke="#6acea2"/><path d="M632,591L576,656L667,645Z" fill="#62c798" stroke="#62c798"/><path d="M632,591L667,645L737,549Z" fill="#61ca9b" stroke="#61ca9b"/><path d="M737,549L667,645L761,669Z" fill="#5ac493" stroke="#5ac493"/><path d="M737,549L761,669L835,573Z" fill="#58c594" stroke="#58c594"/><path d="M835,573L761,669L848,617Z" fill="#52c18d" stroke="#52c18d"/><path d="M835,573L848,617L988,583Z" fill="#50c28c" stroke="#50c28c"/><path d="M988,583L848,617L928,690Z" fill="#49bb81" stroke="#49bb81"/><path d="M988,583L928,690L1045,691Z" fill="#41b576" stroke="#41b576"/><path d="M988,583L1045,691L1092,566Z" fill="#43b97a" stroke="#43b97a"/><path d="M1092,566L1045,691L1139,638Z" fill="#3db472" stroke="#3db472"/><path d="M1092,566L1139,638L1136,542Z" fill="#42b979" stroke="#42b979"/><path d="M1136,542L1139,638L1296,515Z" fill="#40b776" stroke="#40b776"/><path d="M1296,515L1139,638L1266,696Z" fill="#37ac68" stroke="#37ac68"/><path d="M1296,515L1266,696L1364,669Z" fill="#32a65f" stroke="#32a65f"/><path d="M1296,515L1364,669L1394,561Z" fill="#35a965" stroke="#35a965"/><path d="M1394,561L1364,669L1411,666Z" fill="#2c9e58" stroke="#2c9e58"/><path d="M1394,561L1411,666L1507,675Z" fill="#289955" stroke="#289955"/><path d="M1394,561L1507,675L1442,501Z" fill="#2fa060" stroke="#2fa060"/><path d="M1442,501L1507,675L1595,554Z" fill="#2b9a5c" stroke="#2b9a5c"/><path d="M1595,554L1507,675L1607,600Z" fill="#239052" stroke="#239052"/><path d="M1595,554L1607,600L1711,566Z" fill="#268f55" stroke="#268f55"/><path d="M1607,600L1507,675L1650,760Z" fill="#198442" stroke="#198442"/><path d="M1607,600L1650,760L1694,680Z" fill="#197e3e" stroke="#197e3e"/><path d="M1607,600L1694,680L1711,566Z" fill="#21854a" stroke="#21854a"/><path d="M1711,566L1694,680L1756,627Z" fill="#207f45" stroke="#207f45"/><path d="M1899,567L1756,627L1898,633Z" fill="#227540" stroke="#227540"/><path d="M1899,567L1898,633L1994,680Z" fill="#1f6b3b" stroke="#1f6b3b"/><path d="M1899,567L1994,680L1970,517Z" fill="#246e43" stroke="#246e43"/><path d="M-93,661L-97,714L64,615Z" fill="#94d7b2" stroke="#94d7b2"/><path d="M64,615L-97,714L72,775Z" fill="#8bd0a8" stroke="#8bd0a8"/><path d="M64,615L72,775L143,681Z" fill="#88d0a7" stroke="#88d0a7"/><path d="M143,681L72,775L199,759Z" fill="#7fc69d" stroke="#7fc69d"/><path d="M143,681L199,759L255,633Z" fill="#81cea3" stroke="#81cea3"/><path d="M255,633L199,759L292,728Z" fill="#7cca9e" stroke="#7cca9e"/><path d="M255,633L292,728L339,684Z" fill="#7bcca1" stroke="#7bcca1"/><path d="M339,684L292,728L382,721Z" fill="#74c798" stroke="#74c798"/><path d="M339,684L382,721L486,667Z" fill="#70c799" stroke="#70c799"/><path d="M486,667L382,721L448,762Z" fill="#69c192" stroke="#69c192"/><path d="M486,667L448,762L502,730Z" fill="#65bf90" stroke="#65bf90"/><path d="M486,667L502,730L576,656Z" fill="#66c494" stroke="#66c494"/><path d="M576,656L502,730L635,738Z" fill="#5ebe8b" stroke="#5ebe8b"/><path d="M576,656L635,738L667,645Z" fill="#5cc08e" stroke="#5cc08e"/><path d="M667,645L635,738L708,725Z" fill="#55ba85" stroke="#55ba85"/><path d="M667,645L708,725L761,669Z" fill="#54bc88" stroke="#54bc88"/><path d="M761,669L708,725L864,776Z" fill="#47b27b" stroke="#47b27b"/><path d="M761,669L864,776L848,617Z" fill="#49b77e" stroke="#49b77e"/><path d="M848,617L864,776L928,690Z" fill="#44b477" stroke="#44b477"/><path d="M928,690L864,776L933,771Z" fill="#3ba86c" stroke="#3ba86c"/><path d="M928,690L933,771L1045,691Z" fill="#3bac6b" stroke="#3bac6b"/><path d="M1045,691L933,771L1022,797Z" fill="#33a463" stroke="#33a463"/><path d="M1045,691L1022,797L1174,745Z" fill="#2fa25e" stroke="#2fa25e"/><path d="M1045,691L1174,745L1139,638Z" fill="#34a963" stroke="#34a963"/><path d="M1139,638L1174,745L1266,696Z" fill="#30a45b" stroke="#30a45b"/><path d="M1266,696L1174,745L1255,748Z" fill="#299b52" stroke="#299b52"/><path d="M1266,696L1255,748L1356,728Z" fill="#26984d" stroke="#26984d"/><path d="M1266,696L1356,728L1364,669Z" fill="#289a4e" stroke="#289a4e"/><path d="M1364,669L1356,728L1411,666Z" fill="#26974e" stroke="#26974e"/><path d="M1411,666L1356,728L1413,745Z" fill="#219247" stroke="#219247"/><path d="M1411,666L1413,745L1507,675Z" fill="#208f47" stroke="#208f47"/><path d="M1507,675L1413,745L1525,781Z" fill="#18853f" stroke="#18853f"/><path d="M1507,675L1525,781L1650,760Z" fill="#137c39" stroke="#137c39"/><path d="M1694,680L1650,760L1745,781Z" fill="#106f31" stroke="#106f31"/><path d="M1694,680L1745,781L1756,627Z" fill="#177435" stroke="#177435"/><path d="M1756,627L1745,781L1898,633Z" fill="#197035" stroke="#197035"/><path d="M1898,633L1745,781L1890,798Z" fill="#116128" stroke="#116128"/><path d="M1898,633L1890,798L1943,793Z" fill="#105a25" stroke="#105a25"/><path d="M1898,633L1943,793L1994,680Z" fill="#165f2b" stroke="#165f2b"/><path d="M1994,680L1943,793L1976,887Z" fill="#0a4a1f" stroke="#0a4a1f"/><path d="M1994,680L1976,887L1980,1009Z" fill="#003a15" stroke="#003a15"/><path d="M-97,714L-51,1071L-39,940Z" fill="#7ba68e" stroke="#7ba68e"/><path d="M-97,714L-39,940L-9,811Z" fill="#7eb89a" stroke="#7eb89a"/><path d="M-97,714L-9,811L72,775Z" fill="#84c4a0" stroke="#84c4a0"/><path d="M72,775L-9,811L77,845Z" fill="#7ab997" stroke="#7ab997"/><path d="M72,775L77,845L199,759Z" fill="#78bb97" stroke="#78bb97"/><path d="M199,759L77,845L220,818Z" fill="#73b793" stroke="#73b793"/><path d="M199,759L220,818L292,728Z" fill="#74bd95" stroke="#74bd95"/><path d="M292,728L220,818L304,871Z" fill="#6db48f" stroke="#6db48f"/><path d="M292,728L304,871L382,721Z" fill="#6cb990" stroke="#6cb990"/><path d="M382,721L304,871L448,762Z" fill="#65b58c" stroke="#65b58c"/><path d="M448,762L304,871L393,928Z" fill="#5ba682" stroke="#5ba682"/><path d="M448,762L393,928L483,801Z" fill="#58a982" stroke="#58a982"/><path d="M448,762L483,801L502,730Z" fill="#5fb689" stroke="#5fb689"/><path d="M502,730L483,801L579,866Z" fill="#56ad82" stroke="#56ad82"/><path d="M502,730L579,866L635,738Z" fill="#54af82" stroke="#54af82"/><path d="M635,738L579,866L664,884Z" fill="#47a277" stroke="#47a277"/><path d="M635,738L664,884L708,725Z" fill="#49aa7a" stroke="#49aa7a"/><path d="M708,725L664,884L734,898Z" fill="#3f9d71" stroke="#3f9d71"/><path d="M708,725L734,898L864,776Z" fill="#3da271" stroke="#3da271"/><path d="M864,776L734,898L888,870Z" fill="#319565" stroke="#319565"/><path d="M864,776L888,870L933,771Z" fill="#339c66" stroke="#339c66"/><path d="M933,771L888,870L991,810Z" fill="#2e9860" stroke="#2e9860"/><path d="M933,771L991,810L1022,797Z" fill="#2f9c60" stroke="#2f9c60"/><path d="M1022,797L991,810L1053,843Z" fill="#289559" stroke="#289559"/><path d="M1022,797L1053,843L1138,835Z" fill="#249154" stroke="#249154"/><path d="M1022,797L1138,835L1174,745Z" fill="#269555" stroke="#269555"/><path d="M1174,745L1138,835L1257,847Z" fill="#208d4b" stroke="#208d4b"/><path d="M1174,745L1257,847L1255,748Z" fill="#22904b" stroke="#22904b"/><path d="M1255,748L1257,847L1358,805Z" fill="#1b8843" stroke="#1b8843"/><path d="M1255,748L1358,805L1356,728Z" fill="#1f8e45" stroke="#1f8e45"/><path d="M1356,728L1358,805L1413,745Z" fill="#1c8942" stroke="#1c8942"/><path d="M1413,745L1358,805L1414,866Z" fill="#147e3a" stroke="#147e3a"/><path d="M1413,745L1414,866L1525,781Z" fill="#117a38" stroke="#117a38"/><path d="M1525,781L1414,866L1533,831Z" fill="#0b7031" stroke="#0b7031"/><path d="M1525,781L1533,831L1644,838Z" fill="#076b2e" stroke="#076b2e"/><path d="M1525,781L1644,838L1650,760Z" fill="#096c2f" stroke="#096c2f"/><path d="M1650,760L1644,838L1745,781Z" fill="#09652a" stroke="#09652a"/><path d="M1745,781L1644,838L1791,832Z" fill="#055b24" stroke="#055b24"/><path d="M1745,781L1791,832L1890,798Z" fill="#075621" stroke="#075621"/><path d="M1890,798L1791,832L1806,890Z" fill="#024d1b" stroke="#024d1b"/><path d="M1890,798L1806,890L1904,912Z" fill="#004315" stroke="#004315"/><path d="M1890,798L1904,912L1943,793Z" fill="#034618" stroke="#034618"/><path d="M1943,793L1904,912L1976,887Z" fill="#003c14" stroke="#003c14"/><path d="M-9,811L-39,940L54,905Z" fill="#77aa8f" stroke="#77aa8f"/><path d="M-9,811L54,905L77,845Z" fill="#74b092" stroke="#74b092"/><path d="M77,845L54,905L105,908Z" fill="#72a88c" stroke="#72a88c"/><path d="M77,845L105,908L180,890Z" fill="#6fa88a" stroke="#6fa88a"/><path d="M77,845L180,890L220,818Z" fill="#6dae8d" stroke="#6dae8d"/><path d="M180,890L105,908L145,1002Z" fill="#6e9c83" stroke="#6e9c83"/><path d="M180,890L145,1002L232,949Z" fill="#6b997f" stroke="#6b997f"/><path d="M180,890L232,949L304,871Z" fill="#68a083" stroke="#68a083"/><path d="M180,890L304,871L220,818Z" fill="#68aa89" stroke="#68aa89"/><path d="M304,871L232,949L302,1001Z" fill="#65977c" stroke="#65977c"/><path d="M304,871L302,1001L393,928Z" fill="#60977a" stroke="#60977a"/><path d="M483,801L393,928L460,937Z" fill="#559c7a" stroke="#559c7a"/><path d="M483,801L460,937L579,866Z" fill="#4f9f79" stroke="#4f9f79"/><path d="M579,866L460,937L588,908Z" fill="#4c9572" stroke="#4c9572"/><path d="M579,866L588,908L664,884Z" fill="#459670" stroke="#459670"/><path d="M664,884L588,908L699,939Z" fill="#418f6a" stroke="#418f6a"/><path d="M664,884L699,939L717,907Z" fill="#3d8d67" stroke="#3d8d67"/><path d="M664,884L717,907L734,898Z" fill="#3c9068" stroke="#3c9068"/><path d="M734,898L717,907L699,939Z" fill="#3b8c65" stroke="#3b8c65"/><path d="M734,898L699,939L833,941Z" fill="#378861" stroke="#378861"/><path d="M734,898L833,941L888,870Z" fill="#328a5f" stroke="#328a5f"/><path d="M888,870L833,941L977,967Z" fill="#2c8255" stroke="#2c8255"/><path d="M888,870L977,967L991,810Z" fill="#288956" stroke="#288956"/><path d="M991,810L977,967L1053,843Z" fill="#248952" stroke="#248952"/><path d="M1053,843L977,967L1055,978Z" fill="#237c49" stroke="#237c49"/><path d="M1053,843L1055,978L1104,904Z" fill="#207f48" stroke="#207f48"/><path d="M1053,843L1104,904L1138,835Z" fill="#1f884c" stroke="#1f884c"/><path d="M1138,835L1104,904L1247,920Z" fill="#1b7e43" stroke="#1b7e43"/><path d="M1138,835L1247,920L1257,847Z" fill="#187f41" stroke="#187f41"/><path d="M1257,847L1247,920L1414,866Z" fill="#137637" stroke="#137637"/><path d="M1257,847L1414,866L1358,805Z" fill="#137c39" stroke="#137c39"/><path d="M1414,866L1247,920L1372,982Z" fill="#10692e" stroke="#10692e"/><path d="M1414,866L1372,982L1448,978Z" fill="#0c5f27" stroke="#0c5f27"/><path d="M1414,866L1448,978L1527,932Z" fill="#095d26" stroke="#095d26"/><path d="M1414,866L1527,932L1533,831Z" fill="#07652b" stroke="#07652b"/><path d="M1533,831L1527,932L1644,838Z" fill="#026027" stroke="#026027"/><path d="M1644,838L1527,932L1683,943Z" fill="#00531f" stroke="#00531f"/><path d="M1644,838L1683,943L1791,832Z" fill="#00521e" stroke="#00521e"/><path d="M1791,832L1683,943L1806,890Z" fill="#004918" stroke="#004918"/><path d="M1806,890L1683,943L1795,961Z" fill="#003f12" stroke="#003f12"/><path d="M1806,890L1795,961L1855,967Z" fill="#00380e" stroke="#00380e"/><path d="M1806,890L1855,967L1904,912Z" fill="#00380e" stroke="#00380e"/><path d="M1976,887L1904,912L1980,1009Z" fill="#002c0a" stroke="#002c0a"/><path d="M-39,940L-51,1071L52,1060Z" fill="#788d7e" stroke="#788d7e"/><path d="M-39,940L52,1060L54,905Z" fill="#759782" stroke="#759782"/><path d="M54,905L52,1060L145,1002Z" fill="#72927d" stroke="#72927d"/><path d="M54,905L145,1002L105,908Z" fill="#709c84" stroke="#709c84"/><path d="M232,949L145,1002L302,1001Z" fill="#699078" stroke="#699078"/><path d="M393,928L302,1001L423,1056Z" fill="#5c886f" stroke="#5c886f"/><path d="M393,928L423,1056L460,937Z" fill="#578b6f" stroke="#578b6f"/><path d="M460,937L423,1056L523,1036Z" fill="#538268" stroke="#538268"/><path d="M460,937L523,1036L588,908Z" fill="#4d8a6c" stroke="#4d8a6c"/><path d="M588,908L523,1036L684,1070Z" fill="#467d60" stroke="#467d60"/><path d="M588,908L684,1070L699,939Z" fill="#418261" stroke="#418261"/><path d="M699,939L684,1070L717,1062Z" fill="#3c7559" stroke="#3c7559"/><path d="M699,939L717,1062L833,941Z" fill="#387c59" stroke="#387c59"/><path d="M833,941L717,1062L824,1060Z" fill="#347253" stroke="#347253"/><path d="M833,941L824,1060L931,1085Z" fill="#2f6e4c" stroke="#2f6e4c"/><path d="M833,941L931,1085L977,967Z" fill="#2b7249" stroke="#2b7249"/><path d="M977,967L931,1085L1057,1005Z" fill="#266b41" stroke="#266b41"/><path d="M977,967L1057,1005L1055,978Z" fill="#237141" stroke="#237141"/><path d="M1055,978L1057,1005L1193,1035Z" fill="#1e6838" stroke="#1e6838"/><path d="M1055,978L1193,1035L1205,1018Z" fill="#1c6433" stroke="#1c6433"/><path d="M1055,978L1205,1018L1104,904Z" fill="#1d6f3c" stroke="#1d6f3c"/><path d="M1104,904L1205,1018L1247,920Z" fill="#1a6f38" stroke="#1a6f38"/><path d="M1247,920L1205,1018L1356,1017Z" fill="#15612b" stroke="#15612b"/><path d="M1247,920L1356,1017L1372,982Z" fill="#126028" stroke="#126028"/><path d="M1372,982L1356,1017L1411,1043Z" fill="#0e521f" stroke="#0e521f"/><path d="M1372,982L1411,1043L1448,978Z" fill="#0c521e" stroke="#0c521e"/><path d="M1448,978L1411,1043L1587,1099Z" fill="#074319" stroke="#074319"/><path d="M1448,978L1587,1099L1527,932Z" fill="#054718" stroke="#054718"/><path d="M1527,932L1587,1099L1624,1095Z" fill="#013913" stroke="#013913"/><path d="M1527,932L1624,1095L1683,943Z" fill="#004113" stroke="#004113"/><path d="M1683,943L1624,1095L1762,1080Z" fill="#002f0c" stroke="#002f0c"/><path d="M1683,943L1762,1080L1795,961Z" fill="#00330a" stroke="#00330a"/><path d="M1795,961L1762,1080L1879,1052Z" fill="#002504" stroke="#002504"/><path d="M1795,961L1879,1052L1855,967Z" fill="#002a04" stroke="#002a04"/><path d="M1855,967L1879,1052L1980,1009Z" fill="#002100" stroke="#002100"/><path d="M1855,967L1980,1009L1904,912Z" fill="#002a07" stroke="#002a07"/><path d="M-51,1071L293,1085L52,1060Z" fill="#71807a" stroke="#71807a"/><path d="M52,1060L293,1085L145,1002Z" fill="#6d8377" stroke="#6d8377"/><path d="M145,1002L293,1085L302,1001Z" fill="#678574" stroke="#678574"/><path d="M293,1085L1587,1099L931,1085Z" fill="#295d46" stroke="#295d46"/><path d="M293,1085L931,1085L684,1070Z" fill="#436c5d" stroke="#436c5d"/><path d="M293,1085L684,1070L423,1056Z" fill="#537568" stroke="#537568"/><path d="M293,1085L423,1056L302,1001Z" fill="#5f7e6f" stroke="#5f7e6f"/><path d="M423,1056L684,1070L523,1036Z" fill="#4b7564" stroke="#4b7564"/><path d="M684,1070L931,1085L824,1060Z" fill="#326651" stroke="#326651"/><path d="M684,1070L824,1060L717,1062Z" fill="#386a56" stroke="#386a56"/><path d="M931,1085L1587,1099L1193,1035Z" fill="#17512b" stroke="#17512b"/><path d="M931,1085L1193,1035L1057,1005Z" fill="#21633b" stroke="#21633b"/><path d="M1193,1035L1587,1099L1411,1043Z" fill="#0d471e" stroke="#0d471e"/><path d="M1193,1035L1411,1043L1356,1017Z" fill="#125423" stroke="#125423"/><path d="M1193,1035L1356,1017L1205,1018Z" fill="#165b2a" stroke="#165b2a"/></g></svg>